<svg width="16" height="16" viewBox="0 0 16 16" fill="none" xmlns="http://www.w3.org/2000/svg">
<path d="M13 5H3V3H13V5ZM12 6H3V7H11L12 6ZM6 12H3V13H5L6 12ZM10 8H3V9H9L10 8ZM8 10H3V11H7L8 10ZM14 14H13L12 15H14.5C14.8 15 15 14.8 15 14.5V12L14 13V14Z" fill="black"/>
<path d="M5 14H2V2H14V5H15V1.5C15 1.2 14.8 1 14.5 1H1.5C1.2 1 1 1.2 1 1.5V14.5C1 14.8 1.2 15 1.5 15H5V14ZM14.2 7.2L15.8 8.8C15.9 8.9 15.9 9.1 15.8 9.2L14.5 10.5L12.5 8.5L13.8 7.2C13.9 7.1 14.1 7.1 14.2 7.2ZM7.1 13.9L12 9L14 11L9.1 15.9C9 16 9 16 8.9 16H7V14.1C7 14 7 14 7.1 13.9Z" fill="black"/>
</svg>
