<svg width="24" height="24" viewBox="0 0 24 24" fill="none" xmlns="http://www.w3.org/2000/svg">
<path d="M10.5859 10.7969V12.625H4.64844V10.7969H10.5859ZM5.34375 6.16406V17.5391H3V6.16406H5.34375ZM12.2578 6.16406V17.5391H9.92188V6.16406H12.2578Z" fill="black"/>
<path d="M21.8438 15.7812V17.5391H14.0625V16.0391L17.7422 12.0938C18.112 11.6823 18.4036 11.3203 18.6172 11.0078C18.8307 10.6901 18.9844 10.4062 19.0781 10.1562C19.1771 9.90104 19.2266 9.65885 19.2266 9.42969C19.2266 9.08594 19.1693 8.79167 19.0547 8.54688C18.9401 8.29688 18.7708 8.10417 18.5469 7.96875C18.3281 7.83333 18.0573 7.76562 17.7344 7.76562C17.3906 7.76562 17.0938 7.84896 16.8438 8.01562C16.599 8.18229 16.4115 8.41406 16.2812 8.71094C16.1562 9.00781 16.0938 9.34375 16.0938 9.71875H13.8359C13.8359 9.04167 13.9974 8.42188 14.3203 7.85938C14.6432 7.29167 15.099 6.84115 15.6875 6.50781C16.276 6.16927 16.974 6 17.7812 6C18.5781 6 19.25 6.13021 19.7969 6.39062C20.349 6.64583 20.7656 7.01562 21.0469 7.5C21.3333 7.97917 21.4766 8.55208 21.4766 9.21875C21.4766 9.59375 21.4167 9.96094 21.2969 10.3203C21.1771 10.6745 21.0052 11.0286 20.7812 11.3828C20.5625 11.7318 20.2969 12.0859 19.9844 12.4453C19.6719 12.8047 19.3255 13.1771 18.9453 13.5625L16.9688 15.7812H21.8438Z" fill="black"/>
</svg>
