<svg width="24" height="24" viewBox="0 0 24 24" fill="none" xmlns="http://www.w3.org/2000/svg">
<path d="M10.5859 10.7969V12.625H4.64844V10.7969H10.5859ZM5.34375 6.16406V17.5391H3V6.16406H5.34375ZM12.2578 6.16406V17.5391H9.92188V6.16406H12.2578Z" fill="black"/>
<path d="M16.3672 10.875H17.5703C17.9557 10.875 18.2734 10.8099 18.5234 10.6797C18.7734 10.5443 18.9583 10.3568 19.0781 10.1172C19.2031 9.8724 19.2656 9.58854 19.2656 9.26562C19.2656 8.97396 19.2083 8.71615 19.0938 8.49219C18.9844 8.26302 18.8151 8.08594 18.5859 7.96094C18.3568 7.83073 18.0677 7.76562 17.7188 7.76562C17.4427 7.76562 17.1875 7.82031 16.9531 7.92969C16.7188 8.03906 16.5312 8.19271 16.3906 8.39062C16.25 8.58854 16.1797 8.82812 16.1797 9.10938H13.9219C13.9219 8.48438 14.0885 7.9401 14.4219 7.47656C14.7604 7.01302 15.2135 6.65104 15.7812 6.39062C16.349 6.13021 16.974 6 17.6562 6C18.4271 6 19.1016 6.125 19.6797 6.375C20.2578 6.61979 20.7083 6.98177 21.0312 7.46094C21.3542 7.9401 21.5156 8.53385 21.5156 9.24219C21.5156 9.60156 21.4323 9.95052 21.2656 10.2891C21.099 10.6224 20.8594 10.9245 20.5469 11.1953C20.2396 11.4609 19.8646 11.6745 19.4219 11.8359C18.9792 11.9922 18.4818 12.0703 17.9297 12.0703H16.3672V10.875ZM16.3672 12.5859V11.4219H17.9297C18.5495 11.4219 19.0938 11.4922 19.5625 11.6328C20.0312 11.7734 20.4245 11.9766 20.7422 12.2422C21.0599 12.5026 21.2995 12.8125 21.4609 13.1719C21.6224 13.526 21.7031 13.9193 21.7031 14.3516C21.7031 14.8828 21.6016 15.3568 21.3984 15.7734C21.1953 16.1849 20.9089 16.5339 20.5391 16.8203C20.1745 17.1068 19.7474 17.3255 19.2578 17.4766C18.7682 17.6224 18.2344 17.6953 17.6562 17.6953C17.1771 17.6953 16.7057 17.6302 16.2422 17.5C15.7839 17.3646 15.3672 17.1641 14.9922 16.8984C14.6224 16.6276 14.3255 16.2891 14.1016 15.8828C13.8828 15.4714 13.7734 14.9844 13.7734 14.4219H16.0312C16.0312 14.7135 16.1042 14.974 16.25 15.2031C16.3958 15.4323 16.5964 15.612 16.8516 15.7422C17.112 15.8724 17.401 15.9375 17.7188 15.9375C18.0781 15.9375 18.3854 15.8724 18.6406 15.7422C18.901 15.6068 19.099 15.4193 19.2344 15.1797C19.375 14.9349 19.4453 14.651 19.4453 14.3281C19.4453 13.9115 19.3698 13.5781 19.2188 13.3281C19.0677 13.0729 18.8516 12.8854 18.5703 12.7656C18.2891 12.6458 17.9557 12.5859 17.5703 12.5859H16.3672Z" fill="black"/>
</svg>
