<svg width="24" height="24" viewBox="0 0 24 24" fill="none" xmlns="http://www.w3.org/2000/svg">
<path d="M10.5859 10.6328V12.4609H4.64844V10.6328H10.5859ZM5.34375 6V17.375H3V6H5.34375ZM12.2578 6V17.375H9.92188V6H12.2578Z" fill="black"/>
<path d="M16.1797 12.1953L14.3828 11.7656L15.0312 6H21.4219V7.82031H16.8828L16.6016 10.3438C16.7526 10.2552 16.9818 10.1615 17.2891 10.0625C17.5964 9.95833 17.9401 9.90625 18.3203 9.90625C18.8724 9.90625 19.362 9.99219 19.7891 10.1641C20.2161 10.3359 20.5781 10.5859 20.875 10.9141C21.1771 11.2422 21.4062 11.6432 21.5625 12.1172C21.7188 12.5911 21.7969 13.1276 21.7969 13.7266C21.7969 14.2318 21.7188 14.7135 21.5625 15.1719C21.4062 15.625 21.1693 16.0312 20.8516 16.3906C20.5339 16.7448 20.1354 17.0234 19.6562 17.2266C19.1771 17.4297 18.6094 17.5312 17.9531 17.5312C17.4635 17.5312 16.9896 17.4583 16.5312 17.3125C16.0781 17.1667 15.6693 16.9505 15.3047 16.6641C14.9453 16.3776 14.6562 16.0312 14.4375 15.625C14.224 15.2135 14.112 14.7448 14.1016 14.2188H16.3359C16.3672 14.5417 16.4505 14.8203 16.5859 15.0547C16.7266 15.2839 16.9115 15.4609 17.1406 15.5859C17.3698 15.7109 17.638 15.7734 17.9453 15.7734C18.2318 15.7734 18.4766 15.7188 18.6797 15.6094C18.8828 15.5 19.0469 15.349 19.1719 15.1562C19.2969 14.9583 19.388 14.7292 19.4453 14.4688C19.5078 14.2031 19.5391 13.9167 19.5391 13.6094C19.5391 13.3021 19.5026 13.0234 19.4297 12.7734C19.3568 12.5234 19.2448 12.3073 19.0938 12.125C18.9427 11.9427 18.75 11.8021 18.5156 11.7031C18.2865 11.6042 18.0182 11.5547 17.7109 11.5547C17.2943 11.5547 16.9714 11.6198 16.7422 11.75C16.5182 11.8802 16.3307 12.0286 16.1797 12.1953Z" fill="black"/>
</svg>
