<svg width="24" height="24" viewBox="0 0 24 24" fill="none" xmlns="http://www.w3.org/2000/svg">
<path d="M10.5859 10.75V12.5781H4.64844V10.75H10.5859ZM5.34375 6.11719V17.4922H3V6.11719H5.34375ZM12.2578 6.11719V17.4922H9.92188V6.11719H12.2578Z" fill="black"/>
<path d="M19.8672 6H20.1953V7.79688H20.0625C19.4688 7.79688 18.9401 7.88542 18.4766 8.0625C18.013 8.23958 17.6198 8.49219 17.2969 8.82031C16.9792 9.14323 16.7344 9.53385 16.5625 9.99219C16.3958 10.4505 16.3125 10.9635 16.3125 11.5312V13.4219C16.3125 13.8281 16.3516 14.1875 16.4297 14.5C16.513 14.8073 16.6302 15.0651 16.7812 15.2734C16.9375 15.4766 17.1198 15.6302 17.3281 15.7344C17.5365 15.8333 17.7708 15.8828 18.0312 15.8828C18.276 15.8828 18.4974 15.8307 18.6953 15.7266C18.8984 15.6224 19.0703 15.4766 19.2109 15.2891C19.3568 15.0964 19.4661 14.8724 19.5391 14.6172C19.6172 14.3568 19.6562 14.0729 19.6562 13.7656C19.6562 13.4583 19.6172 13.1745 19.5391 12.9141C19.4661 12.6536 19.3568 12.4297 19.2109 12.2422C19.0651 12.0495 18.888 11.901 18.6797 11.7969C18.4714 11.6927 18.237 11.6406 17.9766 11.6406C17.6224 11.6406 17.3099 11.724 17.0391 11.8906C16.7734 12.0521 16.5651 12.2604 16.4141 12.5156C16.263 12.7708 16.1823 13.0391 16.1719 13.3203L15.4922 12.8828C15.5078 12.4818 15.5911 12.1016 15.7422 11.7422C15.8984 11.3828 16.112 11.0651 16.3828 10.7891C16.6589 10.5078 16.9896 10.2891 17.375 10.1328C17.7604 9.97135 18.1953 9.89062 18.6797 9.89062C19.2109 9.89062 19.6771 9.99219 20.0781 10.1953C20.4844 10.3984 20.8229 10.6771 21.0938 11.0312C21.3646 11.3854 21.5677 11.7943 21.7031 12.2578C21.8385 12.7214 21.9062 13.2161 21.9062 13.7422C21.9062 14.2943 21.8151 14.8073 21.6328 15.2812C21.4557 15.7552 21.1979 16.1693 20.8594 16.5234C20.526 16.8776 20.125 17.1536 19.6562 17.3516C19.1875 17.5495 18.6615 17.6484 18.0781 17.6484C17.474 17.6484 16.9245 17.5391 16.4297 17.3203C15.9401 17.0964 15.5182 16.7839 15.1641 16.3828C14.8099 15.9818 14.5365 15.5052 14.3438 14.9531C14.1562 14.401 14.0625 13.7969 14.0625 13.1406V12.2656C14.0625 11.349 14.1953 10.5104 14.4609 9.75C14.7318 8.98438 15.1198 8.32292 15.625 7.76562C16.1302 7.20312 16.7396 6.76823 17.4531 6.46094C18.1667 6.15365 18.9714 6 19.8672 6Z" fill="black"/>
</svg>
