<svg width="24" height="24" viewBox="0 0 24 24" fill="none" xmlns="http://www.w3.org/2000/svg">
<path d="M12.6875 11.5781V12.1172C12.6875 12.9818 12.5703 13.7578 12.3359 14.4453C12.1016 15.1328 11.7708 15.7188 11.3438 16.2031C10.9167 16.6823 10.4062 17.0495 9.8125 17.3047C9.22396 17.5599 8.57031 17.6875 7.85156 17.6875C7.13802 17.6875 6.48438 17.5599 5.89062 17.3047C5.30208 17.0495 4.79167 16.6823 4.35938 16.2031C3.92708 15.7188 3.59115 15.1328 3.35156 14.4453C3.11719 13.7578 3 12.9818 3 12.1172V11.5781C3 10.7083 3.11719 9.93229 3.35156 9.25C3.58594 8.5625 3.91667 7.97656 4.34375 7.49219C4.77604 7.00781 5.28646 6.63802 5.875 6.38281C6.46875 6.1276 7.1224 6 7.83594 6C8.55469 6 9.20833 6.1276 9.79688 6.38281C10.3906 6.63802 10.901 7.00781 11.3281 7.49219C11.7604 7.97656 12.0938 8.5625 12.3281 9.25C12.5677 9.93229 12.6875 10.7083 12.6875 11.5781ZM10.3203 12.1172V11.5625C10.3203 10.9583 10.2656 10.4271 10.1562 9.96875C10.0469 9.51042 9.88542 9.125 9.67188 8.8125C9.45833 8.5 9.19792 8.26562 8.89062 8.10938C8.58333 7.94792 8.23177 7.86719 7.83594 7.86719C7.4401 7.86719 7.08854 7.94792 6.78125 8.10938C6.47917 8.26562 6.22135 8.5 6.00781 8.8125C5.79948 9.125 5.64062 9.51042 5.53125 9.96875C5.42188 10.4271 5.36719 10.9583 5.36719 11.5625V12.1172C5.36719 12.7161 5.42188 13.2474 5.53125 13.7109C5.64062 14.1693 5.80208 14.5573 6.01562 14.875C6.22917 15.1875 6.48958 15.4245 6.79688 15.5859C7.10417 15.7474 7.45573 15.8281 7.85156 15.8281C8.2474 15.8281 8.59896 15.7474 8.90625 15.5859C9.21354 15.4245 9.47135 15.1875 9.67969 14.875C9.88802 14.5573 10.0469 14.1693 10.1562 13.7109C10.2656 13.2474 10.3203 12.7161 10.3203 12.1172Z" fill="black"/>
<path d="M21.6875 15.7031V17.5312H15.9609V15.7031H21.6875ZM16.7188 6.15625V17.5312H14.375V6.15625H16.7188Z" fill="black"/>
</svg>
