<svg width="24" height="24" viewBox="0 0 24 24" fill="none" xmlns="http://www.w3.org/2000/svg">
<path d="M12.4297 13.3203H9.53125V11.4922H12.4297C12.8776 11.4922 13.2422 11.4193 13.5234 11.2734C13.8047 11.1224 14.0104 10.9141 14.1406 10.6484C14.2708 10.3828 14.3359 10.0833 14.3359 9.75C14.3359 9.41146 14.2708 9.09635 14.1406 8.80469C14.0104 8.51302 13.8047 8.27865 13.5234 8.10156C13.2422 7.92448 12.8776 7.83594 12.4297 7.83594H10.3438V17.375H8V6H12.4297C13.3203 6 14.0833 6.16146 14.7188 6.48438C15.3594 6.80208 15.849 7.24219 16.1875 7.80469C16.526 8.36719 16.6953 9.01042 16.6953 9.73438C16.6953 10.4688 16.526 11.1042 16.1875 11.6406C15.849 12.1771 15.3594 12.5911 14.7188 12.8828C14.0833 13.1745 13.3203 13.3203 12.4297 13.3203Z" fill="black"/>
</svg>
