<svg width="16" height="16" viewBox="0 0 16 16" fill="none" xmlns="http://www.w3.org/2000/svg">
<path d="M7.59298 11.43L3.56498 5.79C3.51175 5.71524 3.48012 5.62726 3.47357 5.53572C3.46701 5.44418 3.48578 5.3526 3.52781 5.27101C3.56984 5.18942 3.63352 5.12098 3.71187 5.07318C3.79021 5.02537 3.8802 5.00006 3.97198 5H12.029C12.1209 4.99993 12.2111 5.0252 12.2896 5.07306C12.3681 5.12091 12.4319 5.18948 12.474 5.27124C12.5161 5.35299 12.5348 5.44476 12.5281 5.53646C12.5214 5.62816 12.4895 5.71623 12.436 5.791L8.40798 11.431C8.36168 11.496 8.3005 11.5489 8.22957 11.5854C8.15863 11.6219 8.08 11.6409 8.00022 11.6408C7.92045 11.6407 7.84186 11.6215 7.77102 11.5848C7.70017 11.5482 7.63913 11.4951 7.59298 11.43Z" fill="black"/>
</svg>
