<svg width="24" height="24" viewBox="0 0 24 24" fill="none" xmlns="http://www.w3.org/2000/svg">
<path d="M9.38281 6H11.7188V13.5156C11.7188 14.3906 11.5312 15.1276 11.1562 15.7266C10.7865 16.3255 10.2734 16.776 9.61719 17.0781C8.96615 17.3802 8.21615 17.5312 7.36719 17.5312C6.51823 17.5312 5.76302 17.3802 5.10156 17.0781C4.44531 16.776 3.92969 16.3255 3.55469 15.7266C3.1849 15.1276 3 14.3906 3 13.5156V6H5.34375V13.5156C5.34375 14.026 5.42448 14.4427 5.58594 14.7656C5.7474 15.0885 5.97917 15.3255 6.28125 15.4766C6.58854 15.6276 6.95052 15.7031 7.36719 15.7031C7.79427 15.7031 8.15625 15.6276 8.45312 15.4766C8.75521 15.3255 8.98438 15.0885 9.14062 14.7656C9.30208 14.4427 9.38281 14.026 9.38281 13.5156V6Z" fill="black"/>
<path d="M20.9609 15.5469V17.375H15.2344V15.5469H20.9609ZM15.9922 6V17.375H13.6484V6H15.9922Z" fill="black"/>
</svg>
